<svg xmlns="http://www.w3.org/2000/svg" viewBox="0 0 13 13" xml:space="preserve" fill="currentColor" class="E18U0C"><path fill-rule="evenodd" clip-rule="evenodd" d="M12.302 12.861a.554.554 0 0 1-.396-.165l-2.561-2.561a5.624 5.624 0 0 1-3.57 1.274A5.642 5.642 0 0 1 .139 5.774 5.642 5.642 0 0 1 5.776.138a5.642 5.642 0 0 1 5.635 5.636 5.657 5.657 0 0 1-1.274 3.571l2.562 2.561a.558.558 0 0 1-.397.955zM5.774 1.258a4.522 4.522 0 0 0-4.517 4.517 4.522 4.522 0 0 0 4.518 4.517 4.522 4.522 0 0 0 4.517-4.517 4.523 4.523 0 0 0-4.518-4.517z"/></svg>